<svg width="538" height="536" viewBox="0 0 538 536" fill="none" xmlns="http://www.w3.org/2000/svg">
<g clip-path="url(#clip0_20_19266)">
<path d="M7.99935 430.079C24.2511 467.508 58.6165 494.666 82.4004 506.19C176.148 551.609 342.83 547.945 448.749 474.668C520.529 425.008 554.602 352.275 530.124 216.654C521.145 166.903 506.295 98.2757 445.135 48.6612C381.523 -2.9441 307.388 -0.784698 265.367 0.434427C180.735 2.89862 57.4617 37.6242 40.2822 106.524C35.7343 124.753 37.726 129.506 39.0431 196.415C39.4193 215.487 38.0115 239.59 31.9325 272.52C15.4732 361.743 -11.8855 384.29 7.99935 430.079Z" fill="#77D6D3"/>
<path d="M179.217 383.616L522.637 401.598C522.637 401.598 528.294 396.52 531.59 393.213C534.672 390.107 536.586 385.827 536.586 381.087V150.458C536.586 141.243 529.319 133.656 520.107 133.261L180.702 118.599C176.459 118.417 172.521 119.779 169.42 122.178C167.389 123.748 160.071 128.015 160.071 128.015L162.731 366.412C162.738 375.633 170.004 383.22 179.217 383.616Z" fill="#3039C3"/>
<path d="M170.199 390.548L506.32 406.351C516.117 406.773 527.568 397.817 527.568 388.019V157.397C527.568 148.182 520.302 140.595 511.089 140.199L171.684 125.537C161.888 125.116 153.72 132.936 153.72 142.735V373.357C153.72 382.572 160.986 390.152 170.199 390.548Z" fill="#99B9FF"/>
<path d="M506.976 407.337C506.742 407.337 506.509 407.33 506.275 407.324L170.147 391.521H170.153C160.389 391.099 152.747 383.116 152.747 373.35V142.728C152.747 137.722 154.738 133.06 158.359 129.597C161.979 126.134 166.721 124.344 171.73 124.565L511.128 139.227C520.892 139.648 528.541 147.631 528.541 157.397V388.019C528.541 392.428 526.393 396.916 522.494 400.651C518.135 404.814 512.25 407.337 506.976 407.337ZM170.919 126.491C166.715 126.491 162.757 128.079 159.702 131.004C156.471 134.097 154.693 138.26 154.693 142.735V373.357C154.693 382.079 161.525 389.206 170.238 389.582C170.238 389.582 170.238 389.582 170.244 389.582L506.366 405.385C511.303 405.605 516.967 403.245 521.145 399.244C524.661 395.878 526.595 391.897 526.595 388.019V157.397C526.595 148.675 519.763 141.548 511.05 141.172L171.652 126.51C171.399 126.491 171.159 126.491 170.919 126.491Z" fill="black"/>
<path d="M184.264 380.218L495.648 393.674C504.634 394.063 512.133 386.884 512.133 377.896V166.307C512.133 157.851 505.471 150.893 497.017 150.529L185.626 137.074C176.641 136.685 169.141 143.863 169.141 152.851V364.441C169.148 372.897 175.81 379.855 184.264 380.218Z" fill="#CADDFF"/>
<path d="M2.15392 438.042L350.006 453.891C360.477 454.37 370.961 453.443 381.185 451.128L519.724 419.768C520.97 419.483 521.528 418.445 521.463 417.447C521.456 417.395 521.456 417.213 521.456 417.213L521.508 407.428L165.378 398.985C159.384 398.712 153.376 399.244 147.518 400.567L0 425.202L0.0129754 435.785C0.0129754 435.785 0.162193 435.733 0.162193 435.746C0.181656 436.823 0.772038 437.984 2.15392 438.042Z" fill="#3039C3"/>
<path d="M3.13352 427.543L349.292 443.405C359.718 443.885 370.156 442.957 380.336 440.649L518.744 409.308C521.281 408.738 520.95 405.028 518.355 404.912L165.489 388.745C159.52 388.473 153.538 389.005 147.706 390.321L2.73777 423.147C0.207561 423.717 0.538435 427.427 3.13352 427.543Z" fill="#99B9FF"/>
<path d="M354.618 444.514C352.828 444.514 351.037 444.475 349.247 444.39L3.08815 428.529C1.43379 428.451 0.181658 427.251 0.0324408 425.604C-0.116777 423.957 0.908282 422.556 2.52372 422.187L147.485 389.361C153.402 388.019 159.468 387.481 165.527 387.759L266.762 392.396C267.307 392.422 267.722 392.882 267.702 393.421C267.677 393.965 267.203 394.38 266.677 394.361L165.437 389.724C159.552 389.452 153.661 389.977 147.92 391.281L2.9584 424.106C2.17339 424.281 1.94632 424.904 1.99173 425.429C2.03714 425.954 2.3745 426.525 3.17249 426.564L349.331 442.426C359.666 442.899 370.02 441.978 380.109 439.696L518.517 408.348C519.302 408.173 519.529 407.551 519.484 407.026C519.439 406.5 519.101 405.93 518.297 405.891L417.179 401.254C416.634 401.228 416.219 400.768 416.239 400.23C416.265 399.685 416.725 399.263 417.264 399.289L518.381 403.926C520.036 404.004 521.288 405.203 521.437 406.85C521.58 408.498 520.561 409.898 518.946 410.268L380.537 441.615C372.038 443.541 363.338 444.514 354.618 444.514Z" fill="black"/>
<path d="M471.851 75.4365L209.021 63.4009C198.764 62.934 190.453 70.1774 190.453 79.5867V345.68C190.453 355.09 198.764 363.098 209.021 363.572L471.845 375.614C482.102 376.081 490.413 368.837 490.413 359.428V93.3278C490.419 83.9185 482.109 75.9099 471.851 75.4365Z" fill="white"/>
<path d="M491.178 327.776C490.64 327.776 490.205 327.341 490.205 326.803L489.446 93.3278C489.446 84.4438 481.531 76.8502 471.806 76.4092L225.792 65.1453C225.253 65.1194 224.838 64.6654 224.864 64.1272C224.89 63.589 225.351 63.1804 225.883 63.1999L471.897 74.4638C482.647 74.9567 491.392 83.4192 491.392 93.3278L492.151 326.803C492.158 327.341 491.723 327.776 491.178 327.776C491.185 327.776 491.185 327.776 491.178 327.776Z" fill="black"/>
<path d="M475.9 104.559C475.887 104.559 475.867 104.559 475.854 104.559L205.174 92.1606C204.636 92.1346 204.22 91.6807 204.246 91.1425C204.272 90.6042 204.726 90.1892 205.265 90.2151L475.945 102.614C476.484 102.64 476.899 103.094 476.873 103.632C476.847 104.151 476.412 104.559 475.9 104.559Z" fill="#99B9FF"/>
<path d="M214.737 76.7659C214.737 79.1782 212.602 81.0393 209.975 80.9161C207.347 80.7929 205.213 78.7437 205.213 76.3314C205.213 73.9191 207.347 72.058 209.975 72.1812C212.609 72.2979 214.737 74.3536 214.737 76.7659Z" fill="#99B9FF"/>
<path d="M233.785 77.6414C233.785 80.0537 231.65 81.9148 229.023 81.7916C226.395 81.6684 224.261 79.6192 224.261 77.2069C224.261 74.7946 226.395 72.9335 229.023 73.0567C231.65 73.1734 233.785 75.2291 233.785 77.6414Z" fill="#99B9FF"/>
<path d="M252.698 79.5618C253.332 77.2472 251.777 74.8056 249.227 74.1084C246.676 73.4111 244.095 74.7223 243.462 77.0368C242.828 79.3514 244.383 81.793 246.933 82.4903C249.484 83.1875 252.065 81.8764 252.698 79.5618Z" fill="#99B9FF"/>
<path d="M475.9 89.7028C475.887 89.7028 475.867 89.7028 475.854 89.7028L449.034 88.4707C448.496 88.4448 448.08 87.9909 448.106 87.4526C448.132 86.9144 448.58 86.5059 449.125 86.5253L475.945 87.7509C476.484 87.7769 476.899 88.2308 476.873 88.769C476.847 89.3008 476.412 89.7028 475.9 89.7028Z" fill="#99B9FF"/>
<path d="M437.012 87.9261C436.999 87.9261 436.98 87.9261 436.967 87.9261L325.871 82.8356C325.333 82.8097 324.918 82.3557 324.944 81.8175C324.969 81.2793 325.424 80.8707 325.962 80.8902L437.058 85.9807C437.596 86.0066 438.011 86.4606 437.985 86.9988C437.959 87.5176 437.531 87.9261 437.012 87.9261Z" fill="#99B9FF"/>
<path d="M296.716 81.4933C296.703 81.4933 296.683 81.4933 296.67 81.4933L273.023 80.4103C272.484 80.3844 272.069 79.9304 272.095 79.3922C272.121 78.854 272.581 78.439 273.113 78.4649L296.761 79.5478C297.3 79.5738 297.715 80.0277 297.689 80.5659C297.663 81.0912 297.228 81.4933 296.716 81.4933Z" fill="#99B9FF"/>
<path d="M233.285 154.271C235.932 149.758 240.856 146.723 246.572 146.418L246.968 123.735C230.534 122.969 216.034 131.529 209.43 144.927L233.285 154.271Z" fill="#99B9FF"/>
<path d="M232.163 130.135C231.761 130.135 231.391 129.889 231.248 129.487C231.066 128.981 231.332 128.423 231.838 128.242C235.608 126.899 239.572 126.147 243.633 125.998C244.165 125.972 244.619 126.4 244.639 126.932C244.658 127.47 244.236 127.917 243.704 127.937C239.844 128.079 236.068 128.799 232.487 130.07C232.383 130.116 232.273 130.135 232.163 130.135Z" fill="white"/>
<path d="M219.071 138.234C218.817 138.234 218.564 138.137 218.376 137.943C218 137.56 218.007 136.944 218.396 136.568C221.244 133.792 224.546 131.503 228.212 129.752C228.698 129.519 229.276 129.727 229.509 130.213C229.743 130.699 229.535 131.276 229.049 131.51C225.571 133.163 222.444 135.336 219.752 137.962C219.564 138.144 219.317 138.234 219.071 138.234Z" fill="white"/>
<path d="M264.984 165.918C263.635 173.31 256.861 178.835 248.564 178.68C246.092 178.634 243.724 178.083 241.583 177.143L228.633 196.616C234.654 199.645 241.453 201.324 248.57 201.266C269.259 201.11 285.524 186.299 287.328 167.578L264.984 165.918Z" fill="#99B9FF"/>
<path d="M248.071 198.977C247.383 198.977 246.682 198.957 245.994 198.925C241.57 198.704 237.249 197.784 233.149 196.195C232.649 196 232.403 195.436 232.597 194.937C232.792 194.437 233.356 194.191 233.856 194.386C237.755 195.903 241.875 196.778 246.092 196.986C246.851 197.025 247.616 197.044 248.375 197.031H248.382C248.914 197.031 249.349 197.459 249.355 197.997C249.362 198.536 248.927 198.977 248.388 198.977C248.285 198.977 248.181 198.977 248.071 198.977Z" fill="white"/>
<path d="M256.563 198.043C256.115 198.043 255.713 197.732 255.616 197.284C255.499 196.759 255.83 196.24 256.355 196.123C269.714 193.141 280.029 183.024 282.631 170.353C282.741 169.828 283.253 169.491 283.779 169.595C284.304 169.705 284.642 170.217 284.538 170.742C281.781 184.159 270.881 194.865 256.777 198.017C256.699 198.036 256.628 198.043 256.563 198.043Z" fill="white"/>
<path d="M224.579 194.288L237.651 174.763C233.739 171.663 231.229 167.02 231.229 161.891C231.229 160.652 231.378 159.452 231.657 158.305L207.717 149.051C206.432 152.767 205.738 156.755 205.738 160.924C205.732 174.73 213.277 186.999 224.579 194.288Z" fill="#99B9FF"/>
<path d="M254 145.932C261.559 147.436 267.365 153.603 268.059 160.899L304.598 163.791C304.598 163.778 304.598 163.758 304.598 163.745C304.598 136.853 283.241 112.769 254.662 108.379L254 145.932Z" fill="#3039C3"/>
<path d="M376.917 300.391L214.503 293.861C212.168 293.77 210.273 290.917 210.273 287.499C210.273 284.082 212.168 281.384 214.503 281.475L376.917 288.005C379.252 288.096 381.147 290.949 381.147 294.367C381.14 297.791 379.252 300.488 376.917 300.391Z" fill="#CADDFF"/>
<path d="M376.917 327.069L214.503 320.539C212.168 320.448 210.273 317.595 210.273 314.178C210.273 310.76 212.168 308.063 214.503 308.153L376.917 314.683C379.252 314.774 381.147 317.627 381.147 321.045C381.14 324.469 379.252 327.166 376.917 327.069Z" fill="#CADDFF"/>
<path d="M376.917 353.747L214.503 347.217C212.168 347.126 210.273 344.273 210.273 340.856C210.273 337.438 212.168 334.741 214.503 334.831L376.917 341.361C379.252 341.452 381.147 344.305 381.147 347.723C381.14 351.147 379.252 353.845 376.917 353.747Z" fill="#CADDFF"/>
<path d="M463.365 142.806L320.707 135.66C318.657 135.556 316.99 132.703 316.99 129.279C316.99 125.862 318.651 123.171 320.707 123.274L463.365 130.42C465.416 130.524 467.083 133.377 467.083 136.801C467.083 140.219 465.416 142.91 463.365 142.806Z" fill="#CADDFF"/>
<path d="M463.365 169.484L320.707 162.338C318.657 162.234 316.99 159.381 316.99 155.957C316.99 152.54 318.651 149.849 320.707 149.952L463.365 157.099C465.416 157.202 467.083 160.056 467.083 163.479C467.083 166.897 465.416 169.588 463.365 169.484Z" fill="#CADDFF"/>
<path d="M463.365 196.162L320.707 189.016C318.657 188.913 316.99 186.059 316.99 182.635C316.99 179.218 318.651 176.527 320.707 176.63L463.365 183.777C465.416 183.88 467.083 186.734 467.083 190.158C467.083 193.575 465.416 196.266 463.365 196.162Z" fill="#CADDFF"/>
<path d="M369.994 303.932C369.761 303.419 369.203 303.141 368.651 303.257L360.672 304.93C360.204 305.028 359.731 304.84 359.452 304.451C358.511 303.154 357.506 301.928 356.429 300.78C356.104 300.436 356.007 299.937 356.189 299.496L359.335 291.98C359.549 291.462 359.38 290.859 358.92 290.534L353.107 286.397C352.646 286.073 352.023 286.105 351.602 286.481L345.529 291.922C345.172 292.24 344.673 292.311 344.238 292.117C342.791 291.475 341.306 290.917 339.788 290.457C339.333 290.32 339.003 289.938 338.938 289.464L337.9 281.371C337.828 280.814 337.381 280.379 336.816 280.327L329.712 279.653C329.154 279.601 328.629 279.945 328.454 280.477L325.923 288.213C325.774 288.667 325.378 288.978 324.905 289.03C323.341 289.192 321.778 289.464 320.221 289.827C319.76 289.938 319.273 289.769 318.988 289.393L314.051 282.908C313.707 282.461 313.104 282.305 312.591 282.545L306.103 285.515C305.591 285.749 305.312 286.306 305.422 286.857L307.103 294.84C307.2 295.307 307.012 295.78 306.622 296.059C305.325 297 304.099 298.005 302.95 299.081C302.607 299.405 302.107 299.503 301.666 299.321L294.153 296.176C293.634 295.956 293.031 296.131 292.706 296.591L288.574 302.408C288.249 302.868 288.282 303.491 288.658 303.906L294.101 309.982C294.419 310.332 294.49 310.838 294.296 311.272C293.653 312.719 293.096 314.21 292.641 315.727C292.505 316.181 292.122 316.512 291.649 316.577L283.559 317.608C283.001 317.679 282.566 318.127 282.514 318.691L281.839 325.798C281.787 326.356 282.131 326.881 282.663 327.056L290.403 329.592C290.857 329.741 291.169 330.136 291.221 330.61C291.383 332.179 291.655 333.742 292.019 335.298C292.129 335.759 291.96 336.245 291.584 336.53L285.096 341.472C284.649 341.815 284.499 342.418 284.733 342.931L287.704 349.422C287.938 349.934 288.496 350.213 289.047 350.096L297.027 348.423C297.494 348.326 297.968 348.514 298.247 348.903C299.188 350.2 300.193 351.426 301.27 352.574C301.594 352.917 301.692 353.417 301.51 353.858L298.364 361.373C298.149 361.892 298.318 362.495 298.779 362.819L304.592 366.957C305.052 367.281 305.675 367.248 306.097 366.872L312.169 361.432C312.526 361.114 313.026 361.043 313.46 361.237C314.907 361.879 316.393 362.437 317.911 362.897C318.365 363.033 318.696 363.416 318.761 363.889L319.799 371.982C319.87 372.54 320.318 372.974 320.882 373.026L327.986 373.701C328.544 373.753 329.07 373.409 329.245 372.877L331.775 365.141C331.925 364.687 332.32 364.376 332.794 364.324C334.357 364.162 335.921 363.889 337.478 363.526C337.939 363.416 338.425 363.585 338.711 363.961L343.648 370.445C343.992 370.893 344.595 371.048 345.108 370.809L351.595 367.839C352.108 367.605 352.387 367.047 352.27 366.496L350.59 358.514C350.492 358.047 350.68 357.573 351.07 357.294C352.367 356.354 353.593 355.349 354.742 354.273C355.086 353.948 355.585 353.851 356.026 354.033L363.539 357.178C364.058 357.398 364.661 357.223 364.986 356.763L369.119 350.946C369.443 350.485 369.41 349.863 369.034 349.448L363.591 343.372C363.273 343.022 363.202 342.516 363.396 342.081C364.039 340.635 364.597 339.144 365.051 337.626C365.187 337.172 365.57 336.842 366.043 336.777L374.134 335.746C374.691 335.674 375.126 335.227 375.178 334.663L375.853 327.556C375.905 326.998 375.561 326.473 375.029 326.297L367.289 323.762C366.835 323.613 366.523 323.217 366.472 322.744C366.309 321.175 366.037 319.612 365.674 318.055C365.563 317.595 365.732 317.109 366.108 316.823L372.596 311.882C373.044 311.538 373.193 310.935 372.959 310.423L369.994 303.932ZM335.642 349.545C323.004 353.293 309.717 346.089 305.967 333.457C302.217 320.824 309.425 307.544 322.063 303.796C334.701 300.047 347.988 307.252 351.738 319.884C355.488 332.516 348.286 345.797 335.642 349.545Z" fill="#5479F7"/>
<path d="M410.62 251.548L407.416 246.386L401.148 248.559C400.195 247.495 399.163 246.523 398.067 245.66L399.831 239.273L394.473 236.406L390.132 241.426C388.789 240.991 387.414 240.667 386.019 240.459L384.352 234.033L378.279 234.228L377.034 240.738C375.665 241.03 374.315 241.445 372.985 241.97L368.327 237.243L363.169 240.446L365.343 246.717C364.279 247.67 363.312 248.701 362.443 249.797L356.052 248.034L353.185 253.39L358.206 257.735C357.772 259.077 357.454 260.452 357.246 261.852L350.823 263.519L351.018 269.589L357.525 270.84C357.817 272.209 358.232 273.564 358.758 274.893L354.028 279.549L357.233 284.711L363.5 282.539C364.454 283.602 365.485 284.575 366.582 285.437L364.817 291.825L370.176 294.691L374.516 289.672C375.859 290.106 377.235 290.431 378.63 290.638L380.297 297.064L386.369 296.87L387.615 290.359C388.984 290.067 390.333 289.652 391.663 289.127L396.322 293.854L401.479 290.651L399.306 284.38C400.37 283.427 401.337 282.396 402.206 281.3L408.596 283.064L411.464 277.708L406.442 273.363C406.877 272.02 407.195 270.646 407.403 269.245L413.825 267.578L413.631 261.509L407.124 260.257C406.832 258.889 406.416 257.534 405.891 256.204L410.62 251.548ZM390.573 278.836C383.236 283.395 373.595 281.138 369.034 273.797C364.473 266.457 366.731 256.814 374.069 252.262C381.406 247.703 391.047 249.96 395.608 257.3C400.162 264.634 397.911 274.277 390.573 278.836Z" fill="#5479F7"/>
<path d="M372.602 312.848C372.311 312.848 372.019 312.719 371.83 312.466C371.506 312.038 371.584 311.428 372.012 311.104C372.096 311.039 372.129 310.922 372.083 310.825L369.112 304.334C369.067 304.237 368.963 304.178 368.853 304.204L360.879 305.877C360.042 306.052 359.179 305.715 358.673 305.015C357.759 303.75 356.772 302.55 355.728 301.435C355.144 300.813 354.975 299.898 355.3 299.114L358.44 291.598C358.479 291.494 358.446 291.384 358.362 291.319L352.549 287.182C352.458 287.117 352.341 287.123 352.257 287.195L346.185 292.635C345.555 293.206 344.634 293.349 343.849 292.999C342.441 292.369 340.981 291.825 339.515 291.384C338.691 291.137 338.094 290.431 337.984 289.588L336.946 281.495C336.933 281.391 336.842 281.307 336.738 281.294L329.634 280.619C329.096 280.567 328.707 280.094 328.759 279.556C328.81 279.018 329.291 278.628 329.816 278.68L336.92 279.355C337.939 279.452 338.743 280.23 338.873 281.242L339.911 289.335C339.924 289.419 339.982 289.49 340.073 289.516C341.617 289.983 343.155 290.554 344.64 291.215C344.725 291.254 344.822 291.241 344.887 291.183L350.959 285.742C351.725 285.055 352.841 284.996 353.678 285.587L359.491 289.724C360.328 290.32 360.633 291.39 360.237 292.337L357.097 299.853C357.064 299.931 357.084 300.028 357.149 300.093C358.252 301.267 359.29 302.538 360.25 303.86C360.308 303.938 360.393 303.971 360.477 303.958L368.45 302.285C369.456 302.077 370.455 302.576 370.877 303.51L373.848 310.001C374.276 310.935 374.004 312.018 373.186 312.634C373.018 312.783 372.81 312.848 372.602 312.848Z" fill="black"/>
<path d="M380.297 298.031C379.862 298.031 379.466 297.739 379.356 297.304L377.844 291.494C376.826 291.319 375.82 291.079 374.828 290.787L370.903 295.327C370.604 295.67 370.111 295.761 369.709 295.547L364.35 292.681C363.948 292.467 363.753 292 363.87 291.565L365.466 285.788C364.681 285.133 363.922 284.419 363.208 283.661L357.544 285.625C357.116 285.775 356.636 285.606 356.396 285.217L353.191 280.055C352.951 279.666 353.009 279.167 353.334 278.849L357.609 274.64C357.246 273.661 356.941 272.669 356.701 271.67L350.817 270.542C350.291 270.438 349.941 269.932 350.045 269.401C350.148 268.875 350.661 268.532 351.186 268.629L357.694 269.881C358.076 269.952 358.381 270.25 358.459 270.633C358.738 271.936 359.134 273.246 359.646 274.524C359.789 274.887 359.705 275.302 359.426 275.574L355.254 279.685L357.642 283.524L363.176 281.605C363.546 281.475 363.954 281.579 364.22 281.871C365.142 282.895 366.134 283.829 367.185 284.659C367.49 284.899 367.62 285.301 367.516 285.677L365.959 291.319L369.942 293.452L373.777 289.023C374.03 288.725 374.445 288.615 374.815 288.732C376.099 289.147 377.436 289.458 378.772 289.659C379.161 289.717 379.473 289.996 379.57 290.379L381.238 296.805C381.374 297.324 381.062 297.856 380.537 297.992C380.459 298.018 380.381 298.031 380.297 298.031Z" fill="black"/>
<path d="M340.034 415.838C305.124 415.838 272.711 400.093 251.101 372.644C247.403 367.949 248.22 361.153 252.911 357.463C257.608 353.773 264.407 354.577 268.099 359.272C285.583 381.476 311.8 394.212 340.028 394.212C382.243 394.212 418.769 365.64 428.851 324.735C430.278 318.937 436.137 315.397 441.943 316.823C447.743 318.25 451.286 324.112 449.858 329.909C443.916 354.02 429.87 375.847 410.303 391.372C390.139 407.376 365.836 415.838 340.034 415.838Z" fill="#3039C3"/>
<path d="M474.07 343.78L442.326 302.777L401.298 334.507L474.07 343.78Z" fill="#3039C3"/>
<path d="M474.07 343.78L442.326 302.777L401.298 334.507L474.07 343.78Z" fill="#3039C3"/>
<path d="M340.034 395.184C311.501 395.184 285.005 382.312 267.339 359.875C265.711 357.807 263.382 356.503 260.767 356.192C258.159 355.881 255.577 356.607 253.514 358.228C251.444 359.856 250.14 362.184 249.829 364.797C249.518 367.404 250.244 369.985 251.866 372.047C257.173 378.791 263.22 384.913 269.837 390.237C270.252 390.574 270.324 391.183 269.986 391.605C269.649 392.026 269.039 392.091 268.617 391.754C261.883 386.333 255.733 380.108 250.335 373.247C248.389 370.776 247.519 367.689 247.896 364.564C248.272 361.438 249.835 358.643 252.314 356.698C254.786 354.752 257.874 353.883 261.001 354.26C264.128 354.629 266.924 356.198 268.87 358.676C286.167 380.646 312.105 393.246 340.041 393.246C347.683 393.246 355.28 392.325 362.624 390.503C363.15 390.373 363.675 390.691 363.805 391.216C363.935 391.735 363.617 392.266 363.098 392.396C355.592 394.238 347.832 395.184 340.034 395.184Z" fill="black"/>
<path d="M340.034 416.811C336.764 416.811 333.456 416.668 330.212 416.396C329.673 416.351 329.277 415.877 329.323 415.345C329.368 414.807 329.842 414.412 330.374 414.457C333.566 414.729 336.816 414.866 340.034 414.866C365.615 414.866 389.711 406.481 409.706 390.613C426.366 377.397 438.887 359.804 445.92 339.734C446.095 339.228 446.653 338.962 447.159 339.137C447.665 339.312 447.931 339.87 447.756 340.376C440.6 360.79 427.858 378.687 410.912 392.137C390.567 408.277 366.056 416.811 340.034 416.811Z" fill="black"/>
<path d="M474.07 344.753C474.025 344.753 473.979 344.753 473.94 344.747L446.711 341.018C446.18 340.946 445.81 340.454 445.881 339.922C445.952 339.39 446.446 339.014 446.978 339.092L471.845 342.503L442.151 304.146L435.974 308.925C435.546 309.256 434.936 309.178 434.612 308.75C434.281 308.322 434.359 307.712 434.787 307.388L441.735 302.012C442.164 301.682 442.773 301.759 443.098 302.187L474.842 343.19C475.082 343.501 475.115 343.929 474.914 344.273C474.732 344.571 474.414 344.753 474.07 344.753Z" fill="black"/>
<path d="M258.6 287.908C257.744 287.908 256.875 287.804 256.005 287.59C250.205 286.164 246.663 280.301 248.09 274.504C254.033 250.394 268.079 228.56 287.646 213.042C307.816 197.038 332.119 188.575 357.921 188.575C395.089 188.575 429.902 206.849 451.052 237.45C454.445 242.366 453.212 249.097 448.301 252.495C443.383 255.886 436.649 254.654 433.249 249.745C416.141 224.987 387.985 210.202 357.921 210.202C315.705 210.202 279.179 238.773 269.097 279.679C267.884 284.607 263.466 287.908 258.6 287.908Z" fill="#3039C3"/>
<path d="M223.885 260.633L255.629 301.636L296.651 269.906L223.885 260.633Z" fill="#3039C3"/>
<path d="M223.885 260.633L255.629 301.636L296.651 269.906L223.885 260.633Z" fill="#5479F7"/>
<path d="M223.885 260.633L255.629 301.636L296.651 269.906L223.885 260.633Z" fill="#3039C3"/>
<path d="M442.17 255.387C441.457 255.387 440.736 255.322 440.023 255.193C436.922 254.628 434.236 252.884 432.445 250.297C415.519 225.797 387.66 211.174 357.921 211.174C341.234 211.174 324.924 215.727 310.762 224.345C310.301 224.624 309.704 224.481 309.425 224.021C309.146 223.56 309.289 222.964 309.75 222.685C324.217 213.885 340.878 209.229 357.921 209.229C388.303 209.229 416.758 224.17 434.048 249.188C435.54 251.354 437.791 252.8 440.373 253.273C442.962 253.747 445.576 253.182 447.743 251.691C452.207 248.611 453.336 242.47 450.247 238.002C447.6 234.176 444.694 230.479 441.599 227.017C441.242 226.615 441.275 225.999 441.677 225.642C442.079 225.285 442.696 225.318 443.053 225.72C446.199 229.241 449.157 233.002 451.85 236.893C455.541 242.243 454.198 249.596 448.846 253.286C446.854 254.674 444.545 255.387 442.17 255.387Z" fill="black"/>
<path d="M251.178 265.147C251.068 265.147 250.964 265.127 250.854 265.088C250.348 264.907 250.082 264.356 250.257 263.85C257.426 243.514 270.148 225.681 287.036 212.277C307.381 196.136 331.892 187.603 357.921 187.603C368.21 187.603 378.454 188.997 388.361 191.74C388.88 191.882 389.185 192.421 389.036 192.939C388.893 193.458 388.354 193.763 387.835 193.614C378.097 190.916 368.028 189.548 357.914 189.548C332.333 189.548 308.238 197.933 288.243 213.801C271.64 226.978 259.139 244.506 252.093 264.498C251.957 264.9 251.58 265.147 251.178 265.147Z" fill="black"/>
<path d="M255.629 302.609C255.59 302.609 255.545 302.609 255.506 302.602C255.253 302.57 255.019 302.434 254.857 302.233L223.113 261.23C222.872 260.919 222.84 260.491 223.035 260.153C223.229 259.81 223.612 259.622 224.001 259.674L251.003 263.117C251.535 263.182 251.911 263.675 251.847 264.206C251.782 264.738 251.289 265.114 250.757 265.049L226.084 261.904L255.791 300.281L272.03 287.72C272.458 287.389 273.068 287.467 273.392 287.895C273.723 288.323 273.645 288.933 273.217 289.257L256.206 302.414C256.051 302.538 255.843 302.609 255.629 302.609Z" fill="black"/>
<path d="M169.745 292.214C169.751 291.351 121.677 283.764 118.576 274.984C113.95 261.885 108.183 246.127 108.183 246.127L96.1804 253.701L103.907 291.397L169.745 292.214Z" fill="white"/>
<path d="M169.745 293.187C169.738 293.187 169.738 293.187 169.732 293.187L103.894 292.376C103.434 292.369 103.044 292.045 102.954 291.598L95.2267 253.902C95.1489 253.507 95.3176 253.098 95.6614 252.884L107.664 245.31C107.91 245.154 108.222 245.115 108.494 245.213C108.773 245.31 108.994 245.524 109.091 245.796C109.149 245.952 114.917 261.703 119.491 274.66C121.651 280.768 150.359 286.883 162.621 289.49C170.718 291.215 170.718 291.215 170.718 292.22C170.718 292.48 170.614 292.726 170.426 292.908C170.251 293.089 170.004 293.187 169.745 293.187ZM104.705 290.444L160.999 291.137C139.629 286.559 119.835 281.469 117.661 275.315C113.801 264.375 109.091 251.451 107.683 247.606L97.2704 254.181L104.705 290.444Z" fill="black"/>
<path d="M32.6527 205.624C44.1165 201.882 61.5814 199.204 82.4523 205.851C90.0624 208.276 95.5251 214.974 96.4658 222.899L113.47 320.766C114.313 327.88 104.796 334.799 98.0942 337.334C91.094 339.987 80.506 342.496 65.5194 342.496C49.4493 342.496 37.778 343.43 31.2578 340.577C25.8471 338.21 17.705 332.484 17.4325 326.589L18.6197 225.992C18.198 216.823 23.9202 208.47 32.6527 205.624Z" fill="#3039C3"/>
<path d="M112.951 247.677C112.951 247.677 99.3789 210.091 84.1522 206.479L91.8921 259.732L112.951 247.677Z" fill="#3039C3"/>
<path d="M0.992676 266.171C0.992676 266.171 2.47836 241.024 4.65175 231.309C9.22558 210.87 28.7341 207.776 28.7341 207.776L31.1021 262.676L0.992676 266.171Z" fill="#3039C3"/>
<path d="M57.3319 213.859C43.9283 213.859 31.5887 210.189 30.9075 209.988C30.3949 209.832 30.103 209.287 30.2587 208.775C30.4144 208.263 30.9594 207.971 31.4719 208.127C31.686 208.192 53.3485 214.624 70.0349 210.539C70.5604 210.409 71.0859 210.727 71.2091 211.252C71.3389 211.771 71.021 212.303 70.4955 212.426C66.2395 213.464 61.7306 213.859 57.3319 213.859Z" fill="black"/>
<path d="M4.79449 265.121C4.79449 265.121 3.32827 284.296 10.9319 297.175C20.0082 312.55 65.7984 291.844 65.7984 291.844L71.1248 288.829C74.7255 286.793 79.0204 286.352 82.9584 287.623L91.5611 290.398C91.5611 290.398 84.4571 281.884 78.417 278.628C75.5819 277.104 71.9099 278.544 68.8087 280.509C63.4693 283.887 57.1957 285.47 50.8767 285.282L32.6592 284.743C29.6035 284.653 27.0928 282.286 26.8268 279.238L25.4449 263.376L4.79449 265.121Z" fill="white"/>
<path d="M24.8156 303.815C18.2565 303.815 12.7614 302.187 10.095 297.674C2.42649 284.679 3.76296 265.841 3.82784 265.049C3.86677 264.576 4.24305 264.193 4.71666 264.155L25.3735 262.41C25.9055 262.365 26.3791 262.76 26.4245 263.292L27.8064 279.154C28.027 281.709 30.129 283.693 32.6982 283.771L50.9157 284.309C57.2152 284.491 63.2228 282.895 68.2962 279.685C72.6106 276.955 76.1723 276.307 78.8842 277.772C85.0215 281.08 92.0218 289.425 92.3137 289.776C92.5927 290.106 92.6122 290.586 92.3721 290.943C92.1321 291.3 91.6779 291.455 91.2692 291.325L82.6665 288.55C78.9945 287.363 74.9656 287.778 71.6115 289.678L66.285 292.694C66.2591 292.707 66.2331 292.72 66.2072 292.733C64.8383 293.342 41.4241 303.815 24.8156 303.815ZM5.72225 266.022C5.56006 269.796 5.29406 285.716 11.7688 296.682C20.1963 310.955 63.8132 291.669 65.3573 290.975L70.6448 287.986C74.4725 285.82 79.0723 285.353 83.2569 286.702L88.4406 288.375C85.8844 285.638 81.6739 281.495 77.9499 279.491C75.4003 278.116 71.8515 279.737 69.3278 281.339C63.9235 284.763 57.5396 286.455 50.8508 286.267L32.6333 285.716C29.0845 285.612 26.1715 282.863 25.8601 279.322L24.5626 264.427L5.72225 266.022Z" fill="black"/>
<path d="M75.0694 476.029L65.1432 505.639C65.1432 505.639 75.9582 504.718 76.9897 504.919C78.0213 505.12 90.6723 477.916 90.6723 477.916L75.0694 476.029Z" fill="white"/>
<path d="M65.1431 506.611C64.8447 506.611 64.5657 506.475 64.3776 506.242C64.1765 505.982 64.1181 505.645 64.2219 505.334L74.1481 475.725C74.2908 475.284 74.7255 475.011 75.1861 475.07L90.7891 476.957C91.1005 476.996 91.373 477.177 91.5222 477.45C91.6714 477.722 91.6844 478.053 91.5546 478.331C91.5222 478.396 88.3497 485.218 85.0928 491.923C78.1834 506.151 77.7487 506.06 76.8015 505.879C76.1138 505.781 70.3722 506.177 65.2275 506.611C65.195 506.605 65.1691 506.611 65.1431 506.611ZM75.7376 477.093L66.5315 504.543C69.5613 504.296 74.8358 503.894 76.6458 503.92C78.2159 501.832 84.8658 488.039 89.219 478.714L75.7376 477.093ZM77.1259 503.953C77.1389 503.953 77.1584 503.959 77.1713 503.959C77.1584 503.959 77.1454 503.953 77.1259 503.953Z" fill="black"/>
<path d="M67.4138 499.128C67.4138 499.128 82.342 493.013 85.1058 500.691C88.6157 510.457 94.1043 525.359 94.1043 525.359C95.0385 527.953 93.2479 530.715 90.4971 530.935C85.0409 531.376 76.9053 531.727 73.11 530.397C67.1219 528.296 57.1957 509.361 57.1957 509.361L60.2579 493.253C60.2644 493.253 65.6751 492.494 67.4138 499.128Z" fill="#5479F7"/>
<path d="M81.7128 532.304C78.1834 532.304 74.8942 532.051 72.7922 531.318C66.6223 529.152 57.3709 511.793 56.3393 509.815C56.2355 509.62 56.2031 509.4 56.242 509.179L59.3042 493.071C59.3821 492.663 59.7129 492.345 60.1216 492.287C60.18 492.28 65.8179 491.567 68.0367 497.844C70.6901 496.891 77.9823 494.628 82.5562 496.664C84.2365 497.41 85.4043 498.655 86.0141 500.354C89.4851 510.003 94.9607 524.866 95.0126 525.015C95.564 526.545 95.3759 528.199 94.4936 529.554C93.6177 530.916 92.1839 531.772 90.5685 531.902C87.8437 532.122 84.6906 532.304 81.7128 532.304ZM58.2207 509.212C61.0753 514.594 68.9125 527.894 73.4409 529.483C76.2112 530.456 82.2448 530.624 90.4258 529.969C91.4314 529.891 92.3202 529.353 92.8716 528.51C93.4166 527.667 93.5334 526.636 93.196 525.689C93.1441 525.547 87.6685 510.684 84.1976 501.021C83.7694 499.828 82.9779 498.985 81.7776 498.454C76.9702 496.32 67.881 499.997 67.7901 500.029C67.5306 500.133 67.2387 500.127 66.9857 499.997C66.7326 499.874 66.551 499.647 66.4796 499.374C65.3248 494.965 62.4118 494.277 61.0753 494.206L58.2207 509.212Z" fill="black"/>
<path d="M90.283 525.456H74.9461C74.4076 525.456 73.9729 525.021 73.9729 524.483C73.9729 523.945 74.4076 523.51 74.9461 523.51H90.283C90.8215 523.51 91.2562 523.945 91.2562 524.483C91.2562 525.021 90.8215 525.456 90.283 525.456Z" fill="black"/>
<path d="M46.9192 483.305L50.2928 513.083L63.8586 509.367L62.8141 482.534L46.9192 483.305Z" fill="white"/>
<path d="M50.2928 514.056C50.0982 514.056 49.91 513.997 49.7478 513.887C49.5143 513.725 49.3586 513.472 49.3261 513.193L45.9525 483.409C45.9201 483.143 46.0044 482.871 46.1796 482.67C46.3547 482.462 46.6078 482.339 46.8738 482.326L62.7687 481.554C63.0282 481.541 63.2812 481.632 63.4758 481.807C63.664 481.982 63.7807 482.229 63.7937 482.488L64.8382 509.322C64.8577 509.776 64.5593 510.178 64.1246 510.295L50.5523 514.017C50.468 514.049 50.3771 514.056 50.2928 514.056ZM48.0026 484.226L51.1297 511.851L62.8595 508.634L61.8798 483.552L48.0026 484.226Z" fill="black"/>
<path d="M49.0148 535.027H70.4826C73.3891 535.027 75.6209 532.453 75.1927 529.58C74.4726 524.736 72.1435 516.695 65.1432 505.639C64.3777 504.432 63.0412 503.7 61.6139 503.7H55.0808C53.9519 503.7 53.0112 504.549 52.8944 505.671L52.4014 510.379L49.5597 506.624C49.5597 506.624 44.4864 517.311 44.2463 530.183C44.2009 532.842 46.3483 535.027 49.0148 535.027Z" fill="#5479F7"/>
<path d="M70.4826 536H49.0147C47.4642 536 46.0109 535.39 44.921 534.281C43.8311 533.173 43.2472 531.714 43.2796 530.164C43.5196 517.227 48.4763 506.644 48.6839 506.203C48.8331 505.898 49.125 505.69 49.4624 505.652C49.7998 505.613 50.1306 505.762 50.3382 506.034L51.6942 507.824L51.9277 505.567C52.0964 503.946 53.4523 502.727 55.0808 502.727H61.6139C63.3915 502.727 65.0134 503.622 65.9671 505.12C73.0777 516.358 75.4327 524.548 76.1593 529.444C76.4059 531.091 75.9193 532.758 74.8293 534.016C73.7394 535.274 72.1499 536 70.4826 536ZM49.7933 508.544C48.4373 511.896 45.4011 520.456 45.2194 530.203C45.2 531.227 45.5827 532.193 46.3029 532.92C47.023 533.652 47.9832 534.055 49.0083 534.055H70.4761C71.579 534.055 72.63 533.575 73.3501 532.738C74.0703 531.908 74.3882 530.806 74.226 529.716C73.5318 525.008 71.2416 517.097 64.3128 506.151C63.7289 505.23 62.6973 504.659 61.6074 504.659H55.0808C54.4514 504.659 53.9259 505.133 53.8611 505.755L53.368 510.463C53.3291 510.859 53.0436 511.189 52.6608 511.3C52.2781 511.403 51.8628 511.267 51.6228 510.95L49.7933 508.544Z" fill="black"/>
<path d="M73.1166 530.871H47.4122C46.8738 530.871 46.4391 530.436 46.4391 529.898C46.4391 529.36 46.8738 528.925 47.4122 528.925H73.1166C73.655 528.925 74.0897 529.36 74.0897 529.898C74.0897 530.436 73.655 530.871 73.1166 530.871Z" fill="black"/>
<path d="M97.8802 304.444C97.3157 303.069 96.1804 302.019 94.7661 301.578C86.9159 299.114 59.5443 292.629 31.3681 310.689C30.0382 311.538 29.1883 312.971 29.078 314.547C28.0594 328.859 24.2576 403.679 47.9378 492.261L63.891 491.126L67.1414 339.662C67.1414 339.662 90.7696 395.191 71.553 483.558L88.1421 486.619C88.1421 486.619 112.419 454.708 116.766 405.949C120.613 362.819 102.182 314.923 97.8802 304.444Z" fill="black"/>
<path d="M51.999 422.213C51.986 422.213 51.9731 422.213 51.9536 422.213C36.9086 421.564 35.2153 401.176 35.1958 400.969C35.1569 400.431 35.5592 399.97 36.0911 399.925C36.6231 399.886 37.0967 400.288 37.1357 400.82C37.1486 401.008 38.7187 419.69 52.0379 420.267C52.5764 420.293 52.9916 420.747 52.9657 421.279C52.9462 421.804 52.518 422.213 51.999 422.213Z" fill="white"/>
<path d="M68.5233 354.519C67.9978 354.519 67.5696 354.104 67.5502 353.572L66.9857 334.624C66.9728 334.3 67.1285 333.988 67.4009 333.8L77.3466 326.81C77.7813 326.499 78.3911 326.609 78.7025 327.043C79.0139 327.484 78.9037 328.087 78.4625 328.399L68.945 335.084L69.49 353.507C69.503 354.046 69.0813 354.493 68.5493 354.506C68.5428 354.519 68.5363 354.519 68.5233 354.519Z" fill="white"/>
<path d="M61.0365 169.692C67.1025 164.478 68.4844 163.765 70.249 160.782C71.6893 158.344 74.9072 152.903 72.7273 147.151C70.8459 142.177 65.6492 139.175 60.8743 138.915C56.5859 138.682 53.4459 140.712 51.7915 141.782C51.0649 142.249 44.6874 146.509 43.4223 153.461C43.0785 155.348 43.338 156.217 42.4751 157.397C40.5353 160.062 37.0255 158.7 34.5991 160.911C31.5433 163.693 32.9641 169.601 33.0809 170.061C34.6769 176.365 41.4955 180.547 47.049 179.964C50.2539 179.633 49.9101 179.257 61.0365 169.692Z" fill="black"/>
<path d="M44.3177 200.89C47.2501 198.951 48.9564 195.624 48.8786 192.116L48.5477 177.532C48.4504 177.441 48.3466 177.35 48.2493 177.26C48.2493 177.26 42.4038 177.649 41.5539 174.672C40.7041 171.696 44.8367 171.125 44.8367 171.125C44.8367 171.125 40.9376 162.915 51.0325 163.013C53.7444 163.039 54.711 158.545 59.1616 157.54C59.1616 157.54 61.3609 157.351 63.5927 163.116L68.4779 170.34L66.0386 171.676C66.6419 174.426 66.9014 177.454 66.5316 180.664C66.4278 181.591 65.7855 182.363 64.9032 182.655C64.1701 182.895 63.184 183.148 62.0162 183.277L62.8012 193.037C63.145 197.31 63.7095 198.86 67.2193 201.324C68.6726 202.342 70.8524 203.205 72.8636 203.86C74.0704 204.249 73.9276 206.006 72.6755 206.207C65.2665 207.362 51.039 208.73 36.7271 205.462C36.7141 205.462 40.7105 203.276 44.3177 200.89Z" fill="white"/>
<path d="M55.9826 208.47C49.975 208.47 43.2472 207.952 36.5 206.415C36.1042 206.324 35.8058 206 35.7539 205.598C35.6955 205.196 35.8966 204.807 36.2535 204.612C36.2924 204.593 40.2564 202.42 43.7922 200.079C46.4457 198.322 47.9897 195.352 47.9184 192.135L47.6005 178.252C47.568 178.252 47.5421 178.252 47.5096 178.252C45.6606 178.252 41.4826 177.914 40.6327 174.938C40.3472 173.939 40.464 172.999 40.9765 172.214C41.6123 171.242 42.7087 170.716 43.5586 170.438C43.1434 169.082 42.7217 166.728 43.9479 164.809C45.1222 162.967 47.4512 162.04 50.8703 162.04C50.9351 162.04 50.9935 162.04 51.0649 162.04C51.8499 162.04 52.5117 161.359 53.5173 160.25C54.7499 158.888 56.2875 157.196 58.954 156.593C58.9994 156.58 59.0383 156.573 59.0837 156.573C59.5768 156.534 62.1005 156.632 64.462 162.669L69.2824 169.802C69.4381 170.029 69.4835 170.308 69.4186 170.574C69.3538 170.84 69.1786 171.067 68.9385 171.196L67.1285 172.188C67.6929 175.087 67.8097 177.973 67.4853 180.781C67.3361 182.084 66.4343 183.18 65.1887 183.582C64.4945 183.809 63.7743 183.984 63.0477 184.114L63.7614 192.965C64.0857 196.986 64.5204 198.257 67.7643 200.533C68.9061 201.337 70.7746 202.167 73.1491 202.939C74.1287 203.257 74.7321 204.158 74.6477 205.183C74.5634 206.214 73.8238 207.011 72.8052 207.167C68.8866 207.777 62.9115 208.47 55.9826 208.47ZM39.4324 205.04C52.7906 207.595 65.7466 206.298 72.5133 205.247C72.5587 205.241 72.6949 205.222 72.7144 205.027C72.7274 204.845 72.6041 204.8 72.5587 204.787C69.9636 203.951 67.9784 203.049 66.6549 202.122C62.905 199.489 62.1913 197.66 61.828 193.121L61.043 183.362C61.0041 182.836 61.3804 182.376 61.8994 182.318C62.8271 182.207 63.7354 182.013 64.5983 181.734C65.1173 181.565 65.5001 181.105 65.5585 180.56C65.8828 177.739 65.7271 174.821 65.0848 171.89C64.994 171.469 65.1886 171.034 65.5649 170.827L67.0701 170.003L62.7817 163.661C62.7428 163.603 62.7039 163.538 62.6779 163.467C61.0365 159.213 59.5379 158.603 59.22 158.519C57.2412 159.012 56.0734 160.302 54.9446 161.547C53.8611 162.74 52.7387 163.979 51.0519 163.979C50.9871 163.979 50.9157 163.979 50.8508 163.979C48.1454 163.979 46.3743 164.608 45.5828 165.846C44.3566 167.753 45.7061 170.677 45.719 170.703C45.8488 170.982 45.8423 171.313 45.6931 171.579C45.5439 171.851 45.2779 172.039 44.9729 172.078C44.5123 172.143 43.0915 172.506 42.592 173.271C42.4687 173.466 42.3195 173.79 42.4881 174.393C43.0072 176.202 46.8673 176.365 48.1844 176.274C48.4504 176.254 48.7164 176.352 48.9175 176.533L49.2094 176.806C49.404 176.987 49.5143 177.234 49.5208 177.493L49.8517 192.077C49.9425 195.961 48.0741 199.554 44.8562 201.687C42.9488 202.958 40.9246 204.171 39.4324 205.04Z" fill="black"/>
<path d="M62.0032 183.284C62.0032 183.284 55.5998 183.511 53.0566 180.028L62.0032 183.284Z" fill="white"/>
<path d="M61.7437 184.256C60.3813 184.256 54.7889 184.042 52.2716 180.593C51.9537 180.158 52.0511 179.549 52.4857 179.231C52.9204 178.913 53.5303 179.01 53.8481 179.445C56.0605 182.473 61.9124 182.305 61.9772 182.305C62.5028 182.279 62.9634 182.707 62.9828 183.245C63.0023 183.783 62.5806 184.23 62.0421 184.25C62.0097 184.256 61.9059 184.256 61.7437 184.256Z" fill="black"/>
<path d="M180.417 288.42H119.14L164.567 218.586C165.988 216.408 168.46 215.078 171.12 215.078H220.855C224.014 215.078 225.935 218.457 224.248 221.051L180.417 288.42Z" fill="black"/>
<path d="M193.49 239.564C191.498 242.625 187.216 245.109 183.927 245.109C180.637 245.109 179.58 242.625 181.572 239.564C183.563 236.504 187.845 234.02 191.135 234.02C194.424 234.02 195.481 236.504 193.49 239.564Z" fill="#CADDFF"/>
<path d="M174.305 294.25H72.2796C68.7828 294.25 65.9476 291.416 65.9476 287.921H180.637C180.637 291.416 177.802 294.25 174.305 294.25Z" fill="black"/>
<path d="M177.231 289.451H124.603C124.065 289.451 123.63 289.017 123.63 288.479C123.63 287.94 124.065 287.506 124.603 287.506H177.231C177.77 287.506 178.205 287.94 178.205 288.479C178.205 289.017 177.77 289.451 177.231 289.451Z" fill="white"/>
<path d="M241.719 526.818C212.129 526.818 182.396 521.338 153.227 510.502C152.721 510.314 152.468 509.756 152.656 509.251C152.844 508.745 153.408 508.492 153.908 508.68C216.722 532.018 283.974 529.84 338.425 502.701C338.905 502.461 339.489 502.656 339.729 503.135C339.969 503.615 339.774 504.199 339.294 504.439C311.462 518.31 280.898 525.806 248.466 526.72C246.215 526.785 243.97 526.818 241.719 526.818Z" fill="black"/>
<path d="M243.977 513.654C222.379 513.654 200.334 510.489 178.821 504.225C178.302 504.076 178.01 503.538 178.159 503.019C178.308 502.5 178.853 502.208 179.366 502.357C212.602 512.039 247.136 514.257 279.225 508.764C279.757 508.673 280.256 509.03 280.347 509.562C280.438 510.094 280.081 510.593 279.549 510.684C267.955 512.668 256.031 513.654 243.977 513.654Z" fill="black"/>
<path d="M145.02 510.936C144.948 510.936 144.877 510.93 144.812 510.911C144.481 510.839 144.215 510.599 144.105 510.282C142.73 506.378 141.679 502.325 141.672 502.286C141.588 501.968 141.672 501.625 141.899 501.385C142.126 501.145 142.464 501.028 142.782 501.086L151.41 502.63C151.767 502.695 152.059 502.947 152.163 503.291C152.273 503.635 152.182 504.011 151.929 504.27L145.708 510.638C145.532 510.833 145.279 510.936 145.02 510.936ZM143.949 503.278C144.287 504.471 144.806 506.268 145.429 508.148L149.256 504.225L143.949 503.278Z" fill="black"/>
<path d="M84.8334 79.5674C84.5803 79.5674 84.3338 79.4701 84.1457 79.282C83.7694 78.8994 83.7694 78.2834 84.1522 77.9073C108.669 53.5767 146.369 36.1717 196.201 26.1788C196.727 26.075 197.239 26.4122 197.35 26.944C197.454 27.4692 197.116 27.9815 196.584 28.0918C147.135 38.0069 109.766 55.2303 85.5211 79.295C85.3264 79.4701 85.0799 79.5674 84.8334 79.5674Z" fill="black"/>
<path d="M371.305 486.424C370.766 486.424 370.332 485.99 370.332 485.452V480.419C370.332 479.881 370.766 479.447 371.305 479.447C371.843 479.447 372.278 479.881 372.278 480.419V485.452C372.278 485.99 371.843 486.424 371.305 486.424Z" fill="black"/>
<path d="M371.305 498.142C370.766 498.142 370.332 497.708 370.332 497.169V492.137C370.332 491.599 370.766 491.165 371.305 491.165C371.843 491.165 372.278 491.599 372.278 492.137V497.169C372.278 497.708 371.843 498.142 371.305 498.142Z" fill="black"/>
<path d="M367.957 489.77H362.923C362.384 489.77 361.949 489.336 361.949 488.798C361.949 488.26 362.384 487.825 362.923 487.825H367.957C368.496 487.825 368.93 488.26 368.93 488.798C368.93 489.336 368.496 489.77 367.957 489.77Z" fill="black"/>
<path d="M379.687 489.77H374.652C374.114 489.77 373.679 489.336 373.679 488.798C373.679 488.26 374.114 487.825 374.652 487.825H379.687C380.225 487.825 380.66 488.26 380.66 488.798C380.66 489.336 380.219 489.77 379.687 489.77Z" fill="black"/>
<path d="M224.579 37.4751C224.04 37.4751 223.605 37.0406 223.605 36.5024V32.2289C223.605 31.6907 224.04 31.2562 224.579 31.2562C225.117 31.2562 225.552 31.6907 225.552 32.2289V36.5024C225.552 37.0406 225.111 37.4751 224.579 37.4751Z" fill="black"/>
<path d="M224.579 47.4356C224.04 47.4356 223.605 47.0012 223.605 46.4629V42.1895C223.605 41.6513 224.04 41.2168 224.579 41.2168C225.117 41.2168 225.552 41.6513 225.552 42.1895V46.4629C225.552 47.0012 225.111 47.4356 224.579 47.4356Z" fill="black"/>
<path d="M221.731 40.3219H217.455C216.917 40.3219 216.482 39.8874 216.482 39.3492C216.482 38.8109 216.917 38.3765 217.455 38.3765H221.731C222.269 38.3765 222.704 38.8109 222.704 39.3492C222.704 39.8874 222.269 40.3219 221.731 40.3219Z" fill="black"/>
<path d="M231.696 40.3219H227.42C226.882 40.3219 226.447 39.8874 226.447 39.3492C226.447 38.8109 226.882 38.3765 227.42 38.3765H231.696C232.234 38.3765 232.669 38.8109 232.669 39.3492C232.669 39.8874 232.234 40.3219 231.696 40.3219Z" fill="black"/>
<path d="M245.651 31.6583C244.944 31.6583 244.236 31.5286 243.555 31.2627C242.076 30.6856 240.915 29.5637 240.279 28.0917C238.981 25.0893 240.331 21.5681 243.276 20.2452C244.697 19.6032 246.287 19.5643 247.74 20.1285C249.219 20.7056 250.38 21.8275 251.016 23.2995C252.314 26.3019 250.964 29.8231 248.019 31.146C247.26 31.4897 246.455 31.6583 245.651 31.6583ZM245.644 21.6783C245.112 21.6783 244.574 21.7886 244.074 22.0155C242.089 22.9039 241.187 25.2838 242.063 27.3135C242.491 28.3057 243.27 29.0579 244.256 29.447C245.223 29.8231 246.274 29.7972 247.214 29.3692C249.199 28.4808 250.101 26.1009 249.225 24.0712C248.797 23.079 248.019 22.3268 247.033 21.9442C246.585 21.7691 246.111 21.6783 245.644 21.6783Z" fill="black"/>
<path d="M389.483 471.626C388.828 471.626 388.179 471.503 387.55 471.263C386.187 470.731 385.111 469.694 384.527 468.332C383.333 465.563 384.572 462.314 387.297 461.095C388.614 460.505 390.074 460.466 391.417 460.991C392.779 461.523 393.856 462.561 394.44 463.923C395.634 466.691 394.394 469.94 391.67 471.159C390.969 471.464 390.229 471.626 389.483 471.626ZM388.095 462.866C386.337 463.657 385.539 465.758 386.317 467.56C386.694 468.436 387.388 469.104 388.257 469.447C389.113 469.778 390.041 469.752 390.872 469.383C392.63 468.592 393.428 466.49 392.649 464.688C392.273 463.812 391.579 463.144 390.709 462.801C389.86 462.47 388.925 462.489 388.095 462.866Z" fill="black"/>
<path d="M207.386 479.311C207.38 479.311 207.38 479.311 207.373 479.311C204.778 479.278 202.151 479.194 199.556 479.058C199.017 479.032 198.608 478.571 198.634 478.033C198.66 477.495 199.127 477.073 199.659 477.112C202.229 477.249 204.837 477.333 207.399 477.359C207.938 477.365 208.366 477.806 208.359 478.344C208.353 478.883 207.918 479.311 207.386 479.311ZM215.171 479.246C214.646 479.246 214.211 478.831 214.198 478.299C214.185 477.761 214.607 477.313 215.146 477.3C217.708 477.229 220.31 477.099 222.885 476.924C223.411 476.892 223.884 477.294 223.923 477.826C223.962 478.364 223.554 478.824 223.022 478.863C220.427 479.038 217.793 479.168 215.204 479.239C215.184 479.246 215.178 479.246 215.171 479.246ZM191.842 478.494C191.809 478.494 191.783 478.494 191.751 478.487C189.169 478.247 186.554 477.949 183.979 477.605C183.447 477.534 183.07 477.048 183.142 476.509C183.213 475.978 183.706 475.601 184.232 475.673C186.781 476.016 189.376 476.308 191.926 476.542C192.464 476.594 192.854 477.067 192.802 477.599C192.763 478.117 192.341 478.494 191.842 478.494ZM230.703 478.182C230.21 478.182 229.788 477.813 229.736 477.313C229.678 476.782 230.067 476.302 230.599 476.243C233.142 475.971 235.731 475.64 238.287 475.258C238.813 475.18 239.312 475.543 239.39 476.075C239.468 476.607 239.105 477.099 238.573 477.177C235.991 477.56 233.382 477.891 230.813 478.169C230.774 478.182 230.736 478.182 230.703 478.182ZM176.414 476.438C176.356 476.438 176.304 476.431 176.245 476.425C173.696 475.978 171.113 475.478 168.564 474.927C168.038 474.817 167.707 474.298 167.818 473.773C167.934 473.247 168.453 472.917 168.972 473.027C171.49 473.572 174.052 474.071 176.576 474.512C177.108 474.603 177.458 475.109 177.368 475.64C177.29 476.101 176.875 476.438 176.414 476.438ZM246.105 475.906C245.644 475.906 245.236 475.582 245.151 475.115C245.054 474.59 245.398 474.077 245.93 473.98C248.447 473.507 251.003 472.982 253.52 472.411C254.046 472.294 254.565 472.618 254.682 473.144C254.798 473.669 254.474 474.188 253.949 474.304C251.405 474.875 248.83 475.413 246.287 475.887C246.222 475.9 246.163 475.906 246.105 475.906ZM161.194 473.163C161.116 473.163 161.032 473.15 160.954 473.131C158.449 472.489 155.913 471.788 153.415 471.043C152.902 470.887 152.604 470.349 152.76 469.83C152.915 469.318 153.454 469.019 153.973 469.175C156.445 469.908 158.955 470.608 161.44 471.244C161.959 471.38 162.277 471.905 162.141 472.43C162.024 472.871 161.628 473.163 161.194 473.163ZM146.272 468.728C146.168 468.728 146.064 468.708 145.961 468.676C143.521 467.846 141.043 466.957 138.604 466.03C138.104 465.842 137.851 465.278 138.039 464.772C138.227 464.266 138.798 464.02 139.291 464.208C141.711 465.129 144.163 466.011 146.583 466.828C147.089 467.003 147.368 467.554 147.193 468.06C147.057 468.468 146.681 468.728 146.272 468.728ZM131.72 463.203C131.597 463.203 131.467 463.177 131.344 463.125C128.976 462.126 126.575 461.069 124.22 459.98C123.734 459.753 123.52 459.176 123.747 458.689C123.974 458.203 124.551 457.989 125.038 458.216C127.373 459.299 129.754 460.343 132.103 461.335C132.596 461.543 132.829 462.113 132.622 462.606C132.46 462.976 132.103 463.203 131.72 463.203Z" fill="white"/>
<path d="M90.601 154.141C90.5296 154.141 90.4583 154.135 90.3869 154.115C89.8614 153.999 89.537 153.474 89.6538 152.948C90.2247 150.452 90.9578 147.903 91.8466 145.374C92.0218 144.868 92.5797 144.602 93.0858 144.778C93.5918 144.953 93.8643 145.51 93.6826 146.016C92.8263 148.48 92.1061 150.957 91.5547 153.383C91.4444 153.837 91.0421 154.141 90.601 154.141ZM95.6809 139.46C95.5446 139.46 95.4084 139.434 95.2721 139.369C94.7856 139.142 94.5715 138.565 94.7985 138.079C95.882 135.744 97.0952 133.39 98.4187 131.095C98.6847 130.628 99.2815 130.466 99.7487 130.738C100.216 131.004 100.378 131.601 100.105 132.067C98.8144 134.318 97.6207 136.613 96.5632 138.902C96.401 139.253 96.0507 139.46 95.6809 139.46ZM103.414 125.965C103.226 125.965 103.031 125.907 102.863 125.797C102.422 125.492 102.305 124.889 102.61 124.441C104.076 122.308 105.659 120.188 107.307 118.145C107.644 117.723 108.261 117.658 108.676 117.996C109.091 118.333 109.162 118.942 108.818 119.364C107.203 121.368 105.652 123.443 104.212 125.537C104.024 125.816 103.719 125.965 103.414 125.965ZM113.178 113.858C112.938 113.858 112.698 113.774 112.51 113.593C112.121 113.223 112.101 112.607 112.465 112.218C114.255 110.311 116.137 108.457 118.05 106.693C118.446 106.33 119.063 106.356 119.426 106.751C119.789 107.147 119.763 107.763 119.368 108.126C117.486 109.851 115.637 111.68 113.885 113.547C113.697 113.755 113.438 113.858 113.178 113.858ZM124.648 103.347C124.363 103.347 124.078 103.217 123.883 102.977C123.552 102.556 123.623 101.946 124.045 101.609C126.115 99.9812 128.256 98.4313 130.41 96.9982C130.857 96.6999 131.461 96.8231 131.759 97.2705C132.057 97.718 131.934 98.3211 131.487 98.6194C129.372 100.027 127.27 101.55 125.245 103.139C125.077 103.282 124.863 103.347 124.648 103.347ZM137.611 94.7415C137.267 94.7415 136.936 94.5599 136.755 94.2357C136.495 93.7623 136.67 93.1722 137.137 92.9128C139.46 91.6353 141.834 90.4681 144.196 89.437C144.689 89.223 145.26 89.45 145.481 89.9363C145.695 90.4292 145.468 90.9998 144.981 91.2203C142.671 92.2319 140.349 93.3732 138.078 94.6183C137.929 94.7026 137.767 94.7415 137.611 94.7415ZM151.864 88.5421C151.456 88.5421 151.073 88.2827 150.937 87.8677C150.775 87.3554 151.053 86.8107 151.566 86.6421C154.103 85.825 156.665 85.1506 159.196 84.6318C159.715 84.5216 160.234 84.8653 160.344 85.3906C160.454 85.9158 160.11 86.4281 159.585 86.5384C157.126 87.0442 154.628 87.6991 152.163 88.4967C152.066 88.5292 151.968 88.5421 151.864 88.5421ZM167.091 85.4489C166.592 85.4489 166.163 85.0663 166.124 84.554C166.079 84.0158 166.481 83.5489 167.013 83.5035C168.674 83.3673 170.348 83.3025 171.989 83.3025C172.528 83.3025 172.962 83.737 172.962 84.2752C172.962 84.8134 172.528 85.2479 171.989 85.2479C170.4 85.2479 168.784 85.3127 167.175 85.4489C167.143 85.4489 167.117 85.4489 167.091 85.4489Z" fill="white"/>
</g>
<defs>
<clipPath id="clip0_20_19266">
<rect width="538" height="536" fill="white"/>
</clipPath>
</defs>
</svg>
