<svg width="30" height="35" viewBox="0 0 30 35" fill="none" xmlns="http://www.w3.org/2000/svg">
<g clip-path="url(#clip0_20_19262)">
<path fill-rule="evenodd" clip-rule="evenodd" d="M2.75456 23.6221H5.49253C6.97149 23.6221 8.18176 24.8318 8.18176 26.3088L8.18176 32.3133C8.18176 33.7903 6.9703 35 5.49253 35H2.75456C1.27679 35 0.0665228 33.7903 0.0665228 32.3133L0.0665228 26.3088C0.0665228 24.8306 1.27679 23.6221 2.75456 23.6221ZM19.2038 0.266197C20.1252 -0.268535 21.3259 0.0178442 21.8811 0.982739L24.3968 5.36041C24.9032 6.24331 24.1067 7.41259 23.0165 7.12146L20.9752 6.57366C19.9183 10.5176 17.3599 14.0587 13.5507 16.2559C9.78555 18.4293 5.49372 18.8879 1.58471 17.8779C1.44205 17.8411 1.30295 17.8042 1.16742 17.7436C0.297164 17.361 -0.187896 16.3925 0.065334 15.4466C0.360174 14.3463 1.4789 13.7973 2.53462 14.0754C5.48778 14.8477 8.73459 14.5031 11.5879 12.8574C14.4626 11.1985 16.3921 8.53078 17.1887 5.55886L15.1474 5.01224C14.0572 4.71992 13.9525 3.30942 14.8335 2.79845L19.2038 0.266197ZM24.5739 13.8222H27.3131C28.7909 13.8222 29.9999 15.0331 29.9999 16.509V32.3133C29.9999 33.7903 28.7897 35 27.3131 35H24.5739C23.0962 35 21.8847 33.7903 21.8847 32.3133V16.509C21.8847 15.0319 23.095 13.8222 24.5739 13.8222ZM13.3997 20.3555H16.1377C17.6167 20.3555 18.8269 21.5664 18.8269 23.0422V32.3133C18.8269 33.7903 17.6155 35 16.1377 35H13.3997C11.922 35 10.7117 33.7903 10.7117 32.3133L10.7117 23.0422C10.7117 21.5652 11.9208 20.3555 13.3997 20.3555Z" fill="#3039C3"/>
</g>
<defs>
<clipPath id="clip0_20_19262">
<rect width="30" height="35" fill="white"/>
</clipPath>
</defs>
</svg>
