<svg width="39" height="40" viewBox="0 0 39 40" fill="none" xmlns="http://www.w3.org/2000/svg">
<g clip-path="url(#clip0_20_19414)">
<path d="M26.6397 40L22.5436 40C22.1674 40 21.863 39.7006 21.863 39.3306L21.863 36.9979C20.6582 36.7152 19.5211 36.2453 18.4897 35.6258L16.8115 37.2724C16.5452 37.5343 16.114 37.5343 15.8477 37.2724L12.9521 34.4241C12.6858 34.1622 12.6858 33.7381 12.9521 33.472L14.6261 31.8254C14.2752 31.2599 13.9751 30.6695 13.7299 30.0458C14.8628 30.025 15.9703 29.8878 17.0356 29.6466C18.4474 32.3368 21.2966 34.183 24.5895 34.183C29.2817 34.183 33.0862 30.4408 33.0862 25.8212C33.0862 22.8566 31.5137 20.2495 29.1464 18.7651C29.4846 17.7381 29.7256 16.6653 29.8524 15.5593C30.1398 15.7006 30.4188 15.8545 30.6936 16.0167L32.3675 14.3701C32.6339 14.1081 33.065 14.1081 33.3313 14.3659L36.227 17.2183C36.4933 17.4803 36.4933 17.9044 36.227 18.1663L34.553 19.8171C35.1829 20.8316 35.6605 21.946 35.948 23.1352L38.3194 23.1352C38.6956 23.1352 39 23.4345 39 23.8046L39 27.8337C39 28.2038 38.6956 28.5031 38.3194 28.5031L35.948 28.5031C35.6605 29.6923 35.1829 30.8067 34.553 31.8212L36.227 33.4678C36.4933 33.7298 36.4933 34.1539 36.227 34.42L33.3313 37.2682C33.065 37.5302 32.6339 37.5302 32.3675 37.2682L30.6936 35.6216C29.6622 36.2412 28.5293 36.711 27.3203 36.9938L27.3203 39.3264C27.3203 39.6965 27.0159 40 26.6397 40Z" fill="#3039C3"/>
<path d="M16.4607 28.3534L12.3645 28.3534C11.9883 28.3534 11.684 28.0541 11.684 27.684L11.684 25.3514C10.475 25.0644 9.33788 24.5988 8.31067 23.9751L6.63671 25.6258C6.37039 25.8877 5.93922 25.8877 5.67291 25.6258L2.77729 22.7775C2.51097 22.5156 2.51097 22.0915 2.77729 21.8295L4.45548 20.183C3.8214 19.1684 3.34796 18.0541 3.05628 16.8649L0.684832 16.8649C0.308613 16.8649 0.00425559 16.5655 0.00425561 16.1954L0.00425578 12.1663C0.0042558 11.7963 0.308613 11.4969 0.684833 11.4969L3.05628 11.4969C3.34796 10.3118 3.8214 9.18919 4.45548 8.17879L2.77306 6.52807C2.50675 6.26611 2.50675 5.84199 2.77306 5.57588L5.66868 2.73181C5.935 2.46985 6.36617 2.46985 6.63248 2.73181L8.30644 4.38254C9.33788 3.75883 10.4708 3.29314 11.6797 3.01039L11.6797 0.673596C11.684 0.303534 11.9883 -7.35963e-07 12.3645 -7.19518e-07L16.4607 -5.4047e-07C16.5621 -5.36035e-07 16.6594 0.0207895 16.7481 0.0665275C16.8115 0.153846 16.9003 0.232848 17.0144 0.286902C17.0948 0.39501 17.1413 0.532224 17.1413 0.677754L17.1413 3.01455C18.3502 3.2973 19.4831 3.76299 20.5146 4.38669L22.1927 2.73597C22.4591 2.47401 22.8902 2.47401 23.1565 2.73597L26.0522 5.58004C26.3185 5.842 26.3185 6.26611 26.0522 6.53222L24.374 8.18295C25.008 9.19335 25.4815 10.3119 25.7732 11.501L28.1446 11.501C28.5208 11.501 28.8252 11.8004 28.8252 12.1705L28.8252 16.1996C28.8252 16.5655 28.5208 16.869 28.1446 16.869L25.7732 16.869C25.4815 18.0582 25.008 19.1767 24.374 20.1871L26.0522 21.8337C26.3185 22.0956 26.3185 22.5198 26.0522 22.7817L23.1565 25.6299C22.8902 25.8919 22.4591 25.8919 22.1927 25.6299L20.5146 23.9792C19.4831 24.6029 18.3502 25.0686 17.1413 25.3555L17.1413 27.6881C17.1413 28.0541 16.8369 28.3534 16.4607 28.3534ZM14.4105 20.6237C18.0332 20.6237 20.9626 17.738 20.9626 14.1788C20.9626 10.6195 18.029 7.73389 14.4105 7.73389C10.792 7.73389 7.85836 10.6195 7.85836 14.1788C7.85836 17.738 10.792 20.6237 14.4105 20.6237Z" fill="#3039C3"/>
</g>
<defs>
<clipPath id="clip0_20_19414">
<rect width="40" height="39" fill="white" transform="translate(39) rotate(90)"/>
</clipPath>
</defs>
</svg>
