<svg width="27" height="35" viewBox="0 0 27 35" fill="none" xmlns="http://www.w3.org/2000/svg">
<g clip-path="url(#clip0_20_19076)">
<path fill-rule="evenodd" clip-rule="evenodd" d="M20.6162 11.973L22.5925 23.178C22.7568 24.1048 23.4038 25.1331 24.8225 25.5328C26.0704 25.8517 27 26.9789 27 28.3106V32.135C27 33.7113 25.6969 35.0026 24.1033 35.0026L2.89671 35.0026C1.30306 35 0 33.71 0 32.1337L0 28.3093C0 26.9087 1.02956 25.7332 2.37601 25.4885C3.35692 25.2607 4.19319 24.2779 4.37859 23.1728L6.26283 11.9873C4.51929 11.6684 3.19124 10.2092 3.19124 8.47013C3.19124 6.16483 3.19124 3.86083 3.19124 1.55553C3.19124 0.704217 3.92758 0.00781017 4.82697 0.00781017L5.28324 0.00781017C6.18262 0.00781017 6.91896 0.705519 6.91896 1.55553V2.40684C6.91896 3.25814 7.6553 3.95455 8.55469 3.95455H9.37255C10.2719 3.95455 11.0083 3.25814 11.0083 2.40684C11.0083 1.55553 11.0083 2.40033 11.0083 1.54902C11.0083 0.696407 11.7459 0 12.6453 0L13.354 0L14.1719 0C15.0713 0 15.8076 0.697709 15.8076 1.54772V2.40553C15.8076 3.25684 16.544 3.95325 17.4434 3.95325L18.2612 3.95325C19.1606 3.95325 19.897 3.25684 19.897 2.40553V1.71303V1.71173V1.55422C19.897 0.702916 20.6333 0.00650848 21.5327 0.00650848L22.0034 0.00650848C22.9028 0.00650848 23.6391 0.702916 23.6391 1.55422C23.6391 3.85953 23.6181 6.16483 23.6181 8.46883C23.6181 10.1858 22.3256 11.6294 20.6162 11.973Z" fill="#3039C3"/>
</g>
<defs>
<clipPath id="clip0_20_19076">
<rect width="27" height="35" fill="white"/>
</clipPath>
</defs>
</svg>
