<svg width="37" height="37" viewBox="0 0 37 37" fill="none" xmlns="http://www.w3.org/2000/svg">
<path d="M18.5 0C8.28311 0 0 8.28311 0 18.5C0 22.2314 1.10651 25.701 3.00538 28.6087L1.13792 35.5793L8.01085 33.7363C10.9918 35.7958 14.6045 37 18.5 37C28.7169 37 37 28.7169 37 18.5C37 8.28311 28.7169 0 18.5 0ZM18.493 29.8164C16.6465 29.8164 15.2538 28.1968 15.2538 26.5458C15.2538 24.9575 16.4475 23.1809 18.493 23.1809C20.5106 23.1809 21.8719 24.7376 21.8719 26.5458C21.8754 28.3225 20.5664 29.8164 18.493 29.8164ZM20.1266 21.2541C19.987 21.6869 19.5088 22.0359 19.055 22.0359H18.1091C17.6553 22.0359 17.1457 21.6974 16.9886 21.2715C16.7233 20.5455 15.2224 11.3443 15.0304 8.00736C15.0059 7.55359 15.4004 7.18708 15.8541 7.18708L21.282 7.18708C21.7358 7.18708 22.1407 7.55708 22.1023 8.00736C21.8195 11.4805 20.3919 20.4198 20.1266 21.2541Z" fill="#3039C3"/>
</svg>
