<svg width="21" height="20" viewBox="0 0 21 20" fill="none" xmlns="http://www.w3.org/2000/svg">
<g clip-path="url(#clip0_20_19715)">
<path d="M5.294 6.88574H1.24585V19.7951H5.294V6.88574Z" fill="black"/>
<path d="M16.2352 6.59662C16.086 6.57796 15.9274 6.56864 15.7689 6.55931C13.5023 6.46603 12.2244 7.8092 11.7767 8.38751C11.6554 8.54608 11.5994 8.63935 11.5994 8.63935V6.91375H7.72852V19.8231H11.5994H11.7767C11.7767 18.5079 11.7767 17.202 11.7767 15.8869C11.7767 15.178 11.7767 14.4691 11.7767 13.7602C11.7767 12.8834 11.7114 11.9506 12.1498 11.1485C12.5229 10.4769 13.1945 10.1411 13.95 10.1411C16.1886 10.1411 16.2352 12.1652 16.2352 12.3517C16.2352 12.361 16.2352 12.3704 16.2352 12.3704V19.879H20.2834V11.4563C20.2834 8.57406 18.819 6.87644 16.2352 6.59662Z" fill="black"/>
<path d="M3.26997 5.21622C4.56814 5.21622 5.62051 4.16384 5.62051 2.86568C5.62051 1.56751 4.56814 0.515137 3.26997 0.515137C1.97181 0.515137 0.919434 1.56751 0.919434 2.86568C0.919434 4.16384 1.97181 5.21622 3.26997 5.21622Z" fill="black"/>
</g>
<defs>
<clipPath id="clip0_20_19715">
<rect width="19.364" height="19.364" fill="white" transform="translate(0.919434 0.515137)"/>
</clipPath>
</defs>
</svg>
